<?xml
version="1.0" encoding="utf-8"?>
<!DOCTYPE svg PUBLIC "-//W3C//DTD SVG 1.1//EN" "http://www.w3.org/Graphics/SVG/1.1/DTD/svg11.dtd">
<svg version="1.1" xmlns="http://www.w3.org/2000/svg" xmlns:xlink="http://www.w3.org/1999/xlink" x="0px" y="0px" width="100px" height="700px" viewBox="0 0 100 700" enable-background="new 0 0 100 100" xml:space="preserve">
    <defs>
        <radialGradient id="grad2">
            <stop offset="10%" stop-color="rgba(255,255,255,0.5)"/>
            <stop offset="65%" stop-color="rgba(190,190,190,0.6)"/>
        </radialGradient>
        <radialGradient id="grad3">
            <stop offset="10%" stop-color="rgba(190,190,190,0.5)"/>
            <stop offset="55%" stop-color="rgba(255,255,255,0.5)"/>
        </radialGradient>
        <linearGradient id="myGrad" x1="0%" y1="100%" x2="100%" y2="0%">
            <stop offset="15%" stop-color="white"/>
            <stop offset="85%" stop-color="rgb(100,100,100)"/>
        </linearGradient>
        <pattern id="grid" patternUnits="userSpaceOnUse" patternContentUnits="userSpaceOnUse" width="10" height="10">
            <rect fill="none" stroke="#AAA" width="10" height="10"/>
        </pattern>
        <pattern id="grid2" patternUnits="userSpaceOnUse" patternContentUnits="userSpaceOnUse" width="25" height="25">
            <rect fill="none" stroke="black" stroke-dasharray="2.5" stroke-dashoffset="1.25" width="25" height="25"/>
        </pattern>
        <clipPath id="leftSide">
            <rect x="-100" y="-100" width="100" height="200"/>
        </clipPath>
        <clipPath id="rightSide">
            <rect x="0" y="-100" width="100" height="200"/>
        </clipPath>
        <g id="bridge" transform="translate(0,-1) scale(0.17) translate(-250.9596,-243.5418)">
            <!-- bridge 250.9596,243.5418 -->
            <path fill="none" stroke-width="8.0" stroke-linejoin="round" stroke-linecap="butt" d="m173.92651 236.96588l0 0c0 -35.11139 33.920593 -63.5748 75.76378 -63.5748l0 0c41.843185 0 75.76378 28.46341 75.76378 63.5748l0 0c0 35.11139 -33.920593 63.5748 -75.76378 63.5748l0 0c-41.843185 0 -75.76378 -28.46341 -75.76378 -63.5748z" fill-rule="evenodd"/>
            <path stroke="none" d="m224.08092 324.82608q-1.640625 0 -3.125 -0.578125q-0.421875 0.4375 -1.046875 0.4375q-0.640625 0 -1.09375 -0.421875q-0.4375 -0.4375 -0.4375 -1.0625q0 -0.28125 0.03125 -0.859375q0.03125 -0.578125 0.03125 -0.859375l0 -13.28125q0 -0.84375 0.375 -1.5q0.46875 -0.828125 1.34375 -0.828125q1.25 0 1.25 1.359375q0 0.140625 -0.046875 0.484375q-0.03125 0.328125 -0.03125 0.484375l0 4.484375q0.859375 -0.484375 1.65625 -0.71875q0.796875 -0.234375 1.53125 -0.234375q2.765625 0 4.453125 2.0q1.59375 1.875 1.59375 4.546875q0 2.71875 -1.84375 4.609375q-1.875 1.9375 -4.640625 1.9375zm0.4375 -10.09375q-0.609375 0 -1.40625 0.359375q-0.796875 0.34375 -1.78125 1.046875q-0.015625 1.109375 0 4.96875q1.59375 0.703125 2.75 0.703125q1.484375 0 2.4375 -1.0q0.96875 -1.015625 0.96875 -2.53125q0 -1.53125 -0.78125 -2.515625q-0.828125 -1.03125 -2.1875 -1.03125zm18.050781 1.140625q-0.109375 1.796875 -1.625 1.796875q-1.484375 0 -1.484375 -1.53125l-0.046875 -1.171875q-2.640625 0.421875 -3.78125 2.703125l0.015625 5.890625q0 0.671875 -0.46875 1.109375q-0.453125 0.4375 -1.15625 0.4375q-0.71875 0 -1.125 -0.46875q-0.375 -0.421875 -0.375 -1.078125l0 -7.671875q0 -0.359375 0.015625 -1.078125q0.03125 -0.734375 0.03125 -1.09375q0 -0.65625 0.390625 -1.09375q0.40625 -0.4375 1.125 -0.4375q1.296875 0 1.546875 1.328125q2.078125 -1.546875 4.609375 -1.546875q2.34375 0 2.34375 3.125q0 0.59375 -0.015625 0.78125zm4.390625 -5.640625q-0.75 0 -1.3125 -0.5q-0.546875 -0.5 -0.546875 -1.234375q0 -0.71875 0.546875 -1.21875q0.5625 -0.515625 1.3125 -0.515625q0.75 0 1.28125 0.515625q0.546875 0.5 0.546875 1.21875q0 0.734375 -0.546875 1.234375q-0.53125 0.5 -1.28125 0.5zm0.984375 8.59375q0 0.671875 0.046875 2.15625q0.046875 1.46875 0.046875 2.140625q0 0.671875 -0.46875 1.125q-0.453125 0.4375 -1.15625 0.4375q-0.703125 0 -1.15625 -0.4375q-0.453125 -0.453125 -0.453125 -1.125q0 -0.671875 -0.046875 -2.140625q-0.046875 -1.484375 -0.046875 -2.15625q0 -1.046875 0.109375 -2.609375q0.125 -1.578125 0.125 -2.609375q0 -0.6875 0.453125 -1.125q0.46875 -0.4375 1.171875 -0.4375q0.703125 0 1.15625 0.4375q0.453125 0.4375 0.453125 1.125q0 1.03125 -0.125 2.609375q-0.109375 1.5625 -0.109375 2.609375zm11.648422 -6.28125q0.140625 -4.0 0.359375 -5.515625q0.203125 -1.390625 1.515625 -1.390625q0.703125 0 1.125 0.453125q0.421875 0.4375 0.421875 1.09375q0 1.6875 -0.265625 5.0625q-0.265625 3.359375 -0.265625 5.0625q0 4.140625 0.265625 5.546875q0.03125 0.1875 0.03125 0.34375q0 0.640625 -0.46875 1.0625q-0.46875 0.421875 -1.078125 0.421875q-0.875 0 -1.296875 -0.78125q-0.796875 0.484375 -1.65625 0.71875q-0.84375 0.25 -1.765625 0.25q-2.6249847 0 -4.3593597 -1.6875q-1.765625 -1.703125 -1.765625 -4.359375q0 -3.15625 1.78125 -5.09375q1.78125 -1.9375 4.6562347 -1.9375q0.875 0 1.5625 0.1875q0.6875 0.1875 1.203125 0.5625zm-0.234375 3.6875q-0.390625 -0.734375 -1.015625 -1.09375q-0.625 -0.359375 -1.46875 -0.359375q-1.7343597 0 -2.6093597 1.0q-0.859375 1.0 -0.859375 3.0q0 1.265625 0.9375 2.171875q0.9375 0.90625 2.1718597 0.90625q0.90625 0 1.375 -0.21875q0.3125 -0.140625 1.078125 -0.75q0.203125 -0.15625 0.390625 -0.359375q-0.03125 -0.5625 0 -4.296875zm16.613281 1.109375q-0.5 2.75 -0.59375 5.8125q-0.109375 3.78125 -1.265625 5.5q-1.53125 2.28125 -5.4375 2.28125q-4.546875 0 -4.546875 -1.796875q0 -0.65625 0.40625 -1.0625q0.40625 -0.390625 1.078125 -0.390625q0.53125 0 1.515625 0.203125q0.984375 0.203125 1.734375 0.203125q1.75 0 2.578125 -1.0625q0.796875 -1.046875 0.9375 -3.328125q-0.59375 0.609375 -1.34375 0.90625q-0.75 0.3125 -1.640625 0.3125q-2.328125 0 -3.796875 -1.515625q-1.453125 -1.515625 -1.453125 -3.890625q0 -3.1875 1.953125 -5.15625q2.015625 -2.03125 5.4375 -2.03125q1.109375 0 1.90625 0.265625q0.796875 0.265625 1.28125 0.828125q1.5 0.171875 1.5 1.75q0 0.78125 -0.25 2.171875zm-4.546875 -2.34375q-1.984375 0 -3.078125 1.296875q-0.984375 1.1875 -0.984375 3.078125q0 1.390625 0.515625 2.09375q0.53125 0.703125 1.59375 0.703125q0.953125 0 1.921875 -1.109375q0.921875 -1.0625 1.046875 -2.09375q0.21875 -1.125 0.515625 -3.5q-0.390625 -0.234375 -0.78125 -0.34375q-0.390625 -0.125 -0.75 -0.125zm12.332031 9.875q-2.8125 0 -4.59375 -1.34375q-1.96875 -1.484375 -1.96875 -4.15625q0 -2.96875 1.5625 -5.015625q1.734375 -2.28125 4.671875 -2.28125q2.046875 0 3.390625 0.65625q1.765625 0.875 1.765625 2.703125q0 1.28125 -1.4375 2.28125q-0.65625 0.453125 -2.640625 1.328125l-3.9375 1.75q0.5625 0.609375 1.359375 0.921875q0.796875 0.296875 1.828125 0.296875q1.5625 0 2.65625 -0.640625q0.96875 -0.578125 1.5625 -0.578125q1.21875 0 1.21875 1.1875q0 1.328125 -1.96875 2.171875q-1.640625 0.71875 -3.46875 0.71875zm-0.328125 -9.953125q-1.078125 0 -1.859375 0.734375q-0.765625 0.71875 -1.234375 2.171875q1.3125 -0.578125 2.625 -1.140625q1.59375 -0.71875 2.53125 -1.328125q-0.796875 -0.4375 -2.0625 -0.4375z" fill-rule="nonzero"/>
            <path stroke="none" d="m221.99837 257.33768l0 0c-0.074142456 -10.330673 5.227646 -19.90326 13.87706 -25.055557c8.649414 -5.152298 19.307861 -5.0869446 27.897705 0.17106628c8.589874 5.258011 13.781769 14.894928 13.5894165 25.223969l 26 0 0 -43 -108 0 0 43z" fill-rule="evenodd"/>
        </g>
        <g id="speed" transform=" scale(0.17) translate(-258.9596,-435.5418)">
            <!-- speed 250.9596,400.5418  -->
            <path fill="none" stroke-width="8.0" stroke-linejoin="round" stroke-linecap="butt" d="m181.92651 428.97375l0 0c0 -35.11139 33.920593 -63.5748 75.76376 -63.5748l0 0c41.8432 0 75.763794 28.46341 75.763794 63.5748l0 0c0 35.11139 -33.920593 63.5748 -75.763794 63.5748l0 0c-41.84317 0 -75.76376 -28.46341 -75.76376 -63.5748z" fill-rule="evenodd"/>
            <path stroke="none" d="m234.41881 509.24927q-1.171875 0 -1.40625 -0.96875q-0.46875 -0.09375 -0.953125 -0.09375q-2.828125 0 -2.828125 0.78125q0 0.453125 1.703125 1.234375q2.3125 1.0625 3.140625 1.65625q1.703125 1.234375 1.703125 2.78125q0 2.015625 -1.875 3.0625q-1.515625 0.828125 -3.71875 0.828125q-1.5625 0 -2.84375 -0.484375q-1.765625 -0.65625 -1.765625 -1.9375q0 -1.171875 1.390625 -1.171875q0.546875 0 1.5625 0.34375q1.015625 0.34375 1.578125 0.34375q2.375 0 2.390625 -0.96875q0 -0.59375 -1.65625 -1.3125q-2.421875 -1.078125 -3.09375 -1.546875q-1.65625 -1.15625 -1.65625 -2.8125q0 -2.359375 2.5 -3.1875q1.46875 -0.46875 4.453125 -0.46875q1.171875 0 1.734375 0.296875q0.765625 0.40625 0.765625 1.515625q0 2.109375 -1.125 2.109375zm8.839844 9.265625q-1.0 0 -2.125 -0.234375l0 4.78125q0 0.6875 -0.46875 1.125q-0.453125 0.453125 -1.15625 0.453125q-0.703125 0 -1.15625 -0.453125q-0.453125 -0.4375 -0.453125 -1.125q0 -0.546875 0.015625 -4.359375q0.03125 -2.84375 0 -4.640625q-0.03125 -2.53125 -0.15625 -4.359375q-0.1875 -2.515625 -0.1875 -2.3125q0 -0.96875 0.4375 -1.65625q0.5 -0.78125 1.359375 -0.78125q0.65625 0 1.09375 0.453125q0.453125 0.4375 0.453125 1.046875l-0.015625 0.125q0.796875 -0.453125 1.578125 -0.65625q0.796875 -0.21875 1.59375 -0.21875q2.6875 0 3.9375 2.28125q0.921875 1.71875 0.921875 4.46875q0 2.5625 -1.46875 4.25q-1.5625 1.8125 -4.203125 1.8125zm0.8125 -9.6875q-0.734375 0 -1.5 0.34375q-0.765625 0.34375 -1.53125 1.03125q0.140625 2.421875 0.140625 4.84375q1.03125 0.34375 2.078125 0.34375q1.203125 0 1.859375 -0.859375q0.578125 -0.765625 0.578125 -2.078125q0 -1.59375 -0.140625 -2.203125q-0.34375 -1.421875 -1.484375 -1.421875zm12.519516 9.546875q-2.8124847 0 -4.5937347 -1.34375q-1.96875 -1.484375 -1.96875 -4.15625q0 -2.96875 1.5625 -5.015625q1.734375 -2.28125 4.6718597 -2.28125q2.046875 0 3.390625 0.65625q1.765625 0.875 1.765625 2.703125q0 1.28125 -1.4375 2.28125q-0.65625 0.453125 -2.640625 1.328125l-3.9374847 1.75q0.5625 0.609375 1.359375 0.921875q0.796875 0.296875 1.8281097 0.296875q1.5625 0 2.65625 -0.640625q0.96875 -0.578125 1.5625 -0.578125q1.21875 0 1.21875 1.1875q0 1.328125 -1.96875 2.171875q-1.640625 0.71875 -3.46875 0.71875zm-0.328125 -9.953125q-1.0781097 0 -1.8593597 0.734375q-0.765625 0.71875 -1.234375 2.171875q1.3125 -0.578125 2.625 -1.140625q1.5937347 -0.71875 2.5312347 -1.328125q-0.796875 -0.4375 -2.0625 -0.4375zm13.746094 9.953125q-2.8125 0 -4.59375 -1.34375q-1.96875 -1.484375 -1.96875 -4.15625q0 -2.96875 1.5625 -5.015625q1.734375 -2.28125 4.671875 -2.28125q2.046875 0 3.390625 0.65625q1.765625 0.875 1.765625 2.703125q0 1.28125 -1.4375 2.28125q-0.65625 0.453125 -2.640625 1.328125l-3.9375 1.75q0.5625 0.609375 1.359375 0.921875q0.796875 0.296875 1.828125 0.296875q1.5625 0 2.65625 -0.640625q0.96875 -0.578125 1.5625 -0.578125q1.21875 0 1.21875 1.1875q0 1.328125 -1.96875 2.171875q-1.640625 0.71875 -3.46875 0.71875zm-0.328125 -9.953125q-1.078125 0 -1.859375 0.734375q-0.765625 0.71875 -1.234375 2.171875q1.3125 -0.578125 2.625 -1.140625q1.59375 -0.71875 2.53125 -1.328125q-0.796875 -0.4375 -2.0625 -0.4375zm16.417969 -2.375q0.140625 -4.0 0.359375 -5.515625q0.203125 -1.390625 1.515625 -1.390625q0.703125 0 1.125 0.453125q0.421875 0.4375 0.421875 1.09375q0 1.6875 -0.265625 5.0625q-0.265625 3.359375 -0.265625 5.0625q0 4.140625 0.265625 5.546875q0.03125 0.1875 0.03125 0.34375q0 0.640625 -0.46875 1.0625q-0.46875 0.421875 -1.078125 0.421875q-0.875 0 -1.296875 -0.78125q-0.796875 0.484375 -1.65625 0.71875q-0.84375 0.25 -1.765625 0.25q-2.625 0 -4.359375 -1.6875q-1.765625 -1.703125 -1.765625 -4.359375q0 -3.15625 1.78125 -5.09375q1.78125 -1.9375 4.65625 -1.9375q0.875 0 1.5625 0.1875q0.6875 0.1875 1.203125 0.5625zm-0.234375 3.6875q-0.390625 -0.734375 -1.015625 -1.09375q-0.625 -0.359375 -1.46875 -0.359375q-1.734375 0 -2.609375 1.0q-0.859375 1.0 -0.859375 3.0q0 1.265625 0.9375 2.171875q0.9375 0.90625 2.171875 0.90625q0.90625 0 1.375 -0.21875q0.3125 -0.140625 1.078125 -0.75q0.203125 -0.15625 0.390625 -0.359375q-0.03125 -0.5625 0 -4.296875z" fill-rule="nonzero"/>
            <path stroke="none" d="m241.39816 395.68106l0.6000061 19.316101l9.0 -0.6231079l-7.200012 26.793304l9.600006 0l-10.800003 39.25531l30.59999 -52.9635l-8.399994 0l6.0 -21.808502l-7.799988 0l6.0 -23.054688l-28.800003 0.6230774z" fill-rule="evenodd"/>
        </g>

    <g id="boat" transform="scale(0.5) scale(0.7) translate(-15,-5) "  stroke-width="7.0" stroke-linejoin="round" stroke-linecap="round">
        <!--boat -->
        <g  stroke-width="4.0" >
          <path  fill-rule="evenodd" d="m24.658792 133.65619 Q22 110 40.04987 127.49974c31.939777 0 66.41516 -11.401382 89.0 -31.337013 c-6.552429 13.094444 -9.19265 32.743492 -23.083984 37.372704c-25.38562 8.459625 -54.006126 -3.0506287 -80.244095 2.1994781 z" />
        </g>
        <g fill="none" >
            <!--sail -->
            <path    d="m129.04823 85.87139c-7.1184387 -30.536304 -59.159256 17.31443 -79.90125 39.57218" />
            <path    d="m42.872704 47.716297c9.800953 -1.3972702 20.366379 9.167915 23.083992 18.687664c5.7903595 20.283554 -9.251953 41.59352 -18.687668 60.45932" />
            <path   d="m41.7979 48l85 -37.75" />
            <path  d="m125.874016 10.287997c9.800957 -1.3524189 20.366386 8.873624 23.083992 18.087791c5.7903595 19.632452 -9.251953 40.25837 -18.687668 58.518578" />

            <!--mast -->
            <path   d="m99.49344 8.7l-2.4881897 15" />
            <path   d="m88.779526 91l-5.4173203 29" />
        </g>
    </g>
 
        <g id="explore" transform="translate(0,-1) scale(0.17) translate(-423.9596,-243.5418)">
            <!-- explore 420.9596,243.5418-->
            <path stroke="none" d="m388.99084 326.86246q-2.8125 0 -4.59375 -1.34375q-1.96875 -1.484375 -1.96875 -4.15625q0 -2.96875 1.5625 -5.015625q1.734375 -2.28125 4.671875 -2.28125q2.046875 0 3.390625 0.65625q1.765625 0.875 1.765625 2.703125q0 1.28125 -1.4375 2.28125q-0.65625 0.453125 -2.640625 1.328125l-3.9375 1.75q0.5625 0.609375 1.359375 0.921875q0.796875 0.296875 1.828125 0.296875q1.5625 0 2.65625 -0.640625q0.96875 -0.578125 1.5625 -0.578125q1.21875 0 1.21875 1.1875q0 1.328125 -1.96875 2.171875q-1.640625 0.71875 -3.46875 0.71875zm-0.328125 -9.953125q-1.078125 0 -1.859375 0.734375q-0.765625 0.71875 -1.234375 2.171875q1.3125 -0.578125 2.625 -1.140625q1.59375 -0.71875 2.53125 -1.328125q-0.796875 -0.4375 -2.0625 -0.4375zm19.371094 -0.09375q-0.65625 0.5625 -1.71875 1.5l-1.796875 1.671875l3.578125 4.375q0.390625 0.46875 0.390625 0.9375q0 0.609375 -0.5 1.0625q-0.484375 0.46875 -1.125 0.46875q-0.65625 0 -1.171875 -0.5625q-1.046875 -1.15625 -3.46875 -4.140625q-0.953125 0.953125 -2.953125 2.765625q-0.625 0.53125 -0.953125 0.875q-0.515625 0.546875 -1.15625 0.546875q-0.640625 0 -1.125 -0.453125q-0.484375 -0.46875 -0.484375 -1.078125q0 -0.671875 0.953125 -1.546875q0.78125 -0.671875 1.546875 -1.328125q0.71875 -0.71875 2.234375 -2.1875q-0.65625 -0.921875 -1.328125 -1.828125q-0.8125 -1.078125 -1.515625 -1.6875q-0.609375 -0.5 -0.609375 -1.125q0 -0.609375 0.453125 -1.078125q0.46875 -0.484375 1.109375 -0.484375q0.828125 0 2.296875 1.671875l1.875 2.421875q1.015625 -0.84375 2.0 -1.6875q1.25 -1.078125 1.78125 -1.84375q0.515625 -0.71875 1.28125 -0.71875q0.640625 0 1.125 0.453125q0.5 0.4375 0.5 1.046875q0 0.765625 -1.21875 1.953125zm8.042969 10.1875q-1.0 0 -2.125 -0.234375l0 4.78125q0 0.6875 -0.46875 1.125q-0.453125 0.453125 -1.15625 0.453125q-0.703125 0 -1.15625 -0.453125q-0.453125 -0.4375 -0.453125 -1.125q0 -0.546875 0.015625 -4.359375q0.03125 -2.84375 0 -4.640625q-0.03125 -2.53125 -0.15625 -4.359375q-0.1875 -2.515625 -0.1875 -2.3125q0 -0.96875 0.4375 -1.65625q0.5 -0.78125 1.359375 -0.78125q0.65625 0 1.09375 0.453125q0.453125 0.4375 0.453125 1.046875l-0.015625 0.125q0.796875 -0.453125 1.578125 -0.65625q0.796875 -0.21875 1.59375 -0.21875q2.6875 0 3.9375 2.28125q0.921875 1.71875 0.921875 4.46875q0 2.5625 -1.46875 4.25q-1.5625 1.8125 -4.203125 1.8125zm0.8125 -9.6875q-0.734375 0 -1.5 0.34375q-0.765625 0.34375 -1.53125 1.03125q0.140625 2.421875 0.140625 4.84375q1.03125 0.34375 2.078125 0.34375q1.203125 0 1.859375 -0.859375q0.578125 -0.765625 0.578125 -2.078125q0 -1.59375 -0.140625 -2.203125q-0.34375 -1.421875 -1.484375 -1.421875zm10.222656 7.28125q0 2.21875 -1.625 2.21875q-0.703125 0 -1.15625 -0.453125q-0.453125 -0.4375 -0.453125 -1.140625l0 -16.203125q0 -0.6875 0.484375 -1.109375q0.46875 -0.40625 1.15625 -0.40625q0.703125 0 1.140625 0.421875q0.453125 0.40625 0.453125 1.09375l0 15.578125zm7.7929688 2.40625q-2.171875 0 -3.734375 -1.484375q-1.703125 -1.625 -1.796875 -4.34375q-0.078125 -2.59375 1.421875 -4.625q1.78125 -2.390625 4.953125 -2.390625q2.34375 0 3.734375 1.875q1.234375 1.6875 1.234375 4.1875q0 2.71875 -1.453125 4.640625q-1.625 2.140625 -4.359375 2.140625zm0.703125 -9.75q-1.453125 -0.015625 -2.28125 1.3125q-0.703125 1.109375 -0.703125 2.609375q0 1.40625 0.796875 2.15625q0.640625 0.59375 1.484375 0.59375q1.015625 0 1.765625 -0.6875q0.859375 -0.8125 0.90625 -2.203125q0.15625 -3.765625 -1.96875 -3.78125zm16.902344 0.609375q-0.109375 1.796875 -1.625 1.796875q-1.484375 0 -1.484375 -1.53125l-0.046875 -1.171875q-2.640625 0.421875 -3.78125 2.703125l0.015625 5.890625q0 0.671875 -0.46875 1.109375q-0.453125 0.4375 -1.15625 0.4375q-0.71875 0 -1.125 -0.46875q-0.375 -0.421875 -0.375 -1.078125l0 -7.671875q0 -0.359375 0.015625 -1.078125q0.03125 -0.734375 0.03125 -1.09375q0 -0.65625 0.390625 -1.09375q0.40625 -0.4375 1.125 -0.4375q1.296875 0 1.546875 1.328125q2.078125 -1.546875 4.609375 -1.546875q2.34375 0 2.34375 3.125q0 0.59375 -0.015625 0.78125zm7.625 9.0q-2.8125 0 -4.59375 -1.34375q-1.96875 -1.484375 -1.96875 -4.15625q0 -2.96875 1.5625 -5.015625q1.734375 -2.28125 4.671875 -2.28125q2.046875 0 3.390625 0.65625q1.765625 0.875 1.765625 2.703125q0 1.28125 -1.4375 2.28125q-0.65625 0.453125 -2.640625 1.328125l-3.9375 1.75q0.5625 0.609375 1.359375 0.921875q0.796875 0.296875 1.828125 0.296875q1.5625 0 2.65625 -0.640625q0.96875 -0.578125 1.5625 -0.578125q1.21875 0 1.21875 1.1875q0 1.328125 -1.96875 2.171875q-1.640625 0.71875 -3.46875 0.71875zm-0.328125 -9.953125q-1.078125 0 -1.859375 0.734375q-0.765625 0.71875 -1.234375 2.171875q1.3125 -0.578125 2.625 -1.140625q1.59375 -0.71875 2.53125 -1.328125q-0.796875 -0.4375 -2.0625 -0.4375z" fill-rule="nonzero"/>
            <path fill="none" stroke-width="8.0" stroke-linejoin="round" stroke-linecap="butt" d="m348.39896 236.70604l0 0c0 -35.111404 33.920593 -63.5748 75.76376 -63.5748l0 0c41.8432 0 75.763794 28.463394 75.763794 63.5748l0 0c0 35.111404 -33.920593 63.574814 -75.763794 63.574814l0 0c-41.84317 0 -75.76376 -28.46341 -75.76376 -63.574814z" fill-rule="evenodd"/>

                <!-- explore

           <g transform=" translate(412.9596,238.5418) rotate(0) scale(1.1)translate(-412.9596,-240.5418)">
                <path stroke="none" d="m412.9596 250.5418l10.636627 29.562302l4.479187 -30.820206" fill-rule="evenodd"/>
                <path fill="none" stroke-width="3.0" stroke-linejoin="round" stroke-linecap="butt" d="m421.35663 223.49893l-7.8385925 26.415909l13.998962 -1.257904z" fill-rule="evenodd"/>
                <path fill="none" stroke-width="3.0" stroke-linejoin="round" stroke-linecap="butt" d="m412.9596 250.5418l10.636627 29.562302l4.479187 -30.820206" fill-rule="evenodd"/>
                <path fill="none" stroke-width="3.0" stroke-linejoin="round" stroke-linecap="round" d="m415.75912 213.95448l0 -20.126404l8.397034 19.495804l1.119812 -18.2379" fill-rule="evenodd"/>
            </g>
                             -->
           <g transform=" translate(412.9596,238.5418) translate(55,40) rotate(0) scale(1.75) translate(-50,-50)">
              <use xlink:href="#boat"/>

           </g>
        </g>
        <g id="endure" transform="translate(0.07,-1) scale(0.17) translate(-435.9596,-430.5418)">
            <!-- endure-->
            <path fill="none" stroke-width="8.0" stroke-linejoin="round" stroke-linecap="round" d="m359.7533 428.97244l0 0c0 -35.11139 33.920593 -63.5748 75.76376 -63.5748l0 0c41.84317 0 75.763794 28.46341 75.763794 63.5748l0 0c0 35.11139 -33.920624 63.5748 -75.763794 63.5748l0 0c-41.84317 0 -75.76376 -28.46341 -75.76376 -63.5748z" fill-rule="evenodd"/>
            <path fill="none" stroke-width="8.0" stroke-linejoin="round" stroke-linecap="round" d="m382.021 428.6305l106.99213 -0.7558899" fill-rule="evenodd"/>
            <path fill="none" stroke-width="8.0" stroke-linejoin="round" stroke-linecap="round" d="m405.23996 400.91208l1.5118103 54.677185" fill-rule="evenodd"/>
            <path fill="none" stroke-width="8.0" stroke-linejoin="round" stroke-linecap="round" d="m468.06924 400.91376l1.5118103 54.677185" fill-rule="evenodd"/>
            <path fill="none" stroke-width="8.0" stroke-linejoin="round" stroke-linecap="round" d="m393.98428 416.04367l1.5118103 25.858276" fill-rule="evenodd"/>
            <path fill="none" stroke-width="8.0" stroke-linejoin="round" stroke-linecap="round" d="m478.5362 415.32452l1.5118103 25.858276" fill-rule="evenodd"/>
            <path stroke="none" d="m403.87253 518.37427q-2.8125 0 -4.59375 -1.34375q-1.96875 -1.484375 -1.96875 -4.15625q0 -2.96875 1.5625 -5.015625q1.734375 -2.28125 4.671875 -2.28125q2.046875 0 3.390625 0.65625q1.765625 0.875 1.765625 2.703125q0 1.28125 -1.4375 2.28125q-0.65625 0.453125 -2.640625 1.328125l-3.9375 1.75q0.5625 0.609375 1.359375 0.921875q0.796875 0.296875 1.828125 0.296875q1.5625 0 2.65625 -0.640625q0.96875 -0.578125 1.5625 -0.578125q1.21875 0 1.21875 1.1875q0 1.328125 -1.96875 2.171875q-1.640625 0.71875 -3.46875 0.71875zm-0.328125 -9.953125q-1.078125 0 -1.859375 0.734375q-0.765625 0.71875 -1.234375 2.171875q1.3125 -0.578125 2.625 -1.140625q1.59375 -0.71875 2.53125 -1.328125q-0.796875 -0.4375 -2.0625 -0.4375zm17.074219 10.234375q-1.453125 0 -1.609375 -1.421875q-0.171875 -1.203125 -0.328125 -2.421875q-0.171875 -1.28125 -0.171875 -2.421875q0 -0.3125 0.03125 -1.046875q0.046875 -0.734375 0.046875 -1.046875q0 -0.078125 0.015625 -0.40625q0.03125 -0.34375 0.03125 -0.546875q0 -0.96875 -0.5 -0.96875q-1.078125 0 -2.125 1.265625q-1.03125 1.25 -1.625 3.1875q-0.015625 0.375 -0.09375 1.03125q-0.078125 0.515625 -0.078125 1.03125q0 0.328125 0.078125 0.984375q0.078125 0.65625 0.078125 0.984375q0 0.671875 -0.46875 1.109375q-0.453125 0.453125 -1.15625 0.453125q-0.703125 0 -1.171875 -0.453125q-0.453125 -0.4375 -0.453125 -1.109375q0 -0.328125 -0.078125 -0.984375q-0.0625 -0.65625 -0.0625 -0.984375q0 -1.125 0.15625 -3.125q0.171875 -2.015625 0.171875 -3.140625q0 -0.34375 -0.046875 -1.046875q-0.03125 -0.703125 -0.03125 -1.03125q0 -0.65625 0.46875 -1.078125q0.484375 -0.4375 1.171875 -0.4375q1.53125 0 1.640625 1.84375l0.015625 0.125q1.703125 -1.71875 3.609375 -1.71875q2.203125 0 3.046875 1.84375q0.5625 1.25 0.5625 3.71875l0 0.828125q0 0.546875 0 0.765625q0 0.90625 0.25 2.359375q0.25 1.4375 0.25 2.34375q0 0.65625 -0.46875 1.078125q-0.46875 0.4375 -1.15625 0.4375zm11.90625 -12.609375q0.140625 -4.0 0.359375 -5.515625q0.203125 -1.390625 1.515625 -1.390625q0.703125 0 1.125 0.453125q0.421875 0.4375 0.421875 1.09375q0 1.6875 -0.265625 5.0625q-0.265625 3.359375 -0.265625 5.0625q0 4.140625 0.265625 5.546875q0.03125 0.1875 0.03125 0.34375q0 0.640625 -0.46875 1.0625q-0.46875 0.421875 -1.078125 0.421875q-0.875 0 -1.296875 -0.78125q-0.796875 0.484375 -1.65625 0.71875q-0.84375 0.25 -1.765625 0.25q-2.625 0 -4.359375 -1.6875q-1.765625 -1.703125 -1.765625 -4.359375q0 -3.15625 1.78125 -5.09375q1.78125 -1.9375 4.65625 -1.9375q0.875 0 1.5625 0.1875q0.6875 0.1875 1.203125 0.5625zm-0.234375 3.6875q-0.390625 -0.734375 -1.015625 -1.09375q-0.625 -0.359375 -1.46875 -0.359375q-1.734375 0 -2.609375 1.0q-0.859375 1.0 -0.859375 3.0q0 1.265625 0.9375 2.171875q0.9375 0.90625 2.171875 0.90625q0.90625 0 1.375 -0.21875q0.3125 -0.140625 1.078125 -0.75q0.203125 -0.15625 0.390625 -0.359375q-0.03125 -0.5625 0 -4.296875zm16.019531 1.3125q0 0.796875 0 2.375q0.015625 1.578125 0.015625 2.359375q0 0.25 0.03125 0.734375q0.046875 0.484375 0.046875 0.734375q0 0.65625 -0.46875 1.078125q-0.46875 0.4375 -1.171875 0.4375q-0.96875 0 -1.40625 -0.875q-1.5 0.546875 -3.109375 0.546875q-1.671875 0 -2.796875 -0.703125q-1.28125 -0.8125 -1.53125 -2.359375q-0.453125 -2.921875 -0.453125 -5.234375q0 -1.53125 0.34375 -3.484375q0.234375 -1.328125 1.59375 -1.328125q0.671875 0 1.15625 0.4375q0.484375 0.421875 0.484375 1.078125q0 0.515625 -0.171875 1.625q-0.171875 1.09375 -0.171875 1.671875q0 1.65625 0.109375 2.890625q0.109375 1.234375 0.328125 2.046875q0.296875 0.125 0.5625 0.203125q0.28125 0.0625 0.546875 0.0625q1.296875 0 2.859375 -0.375q0 -0.90625 -0.015625 -2.046875q-0.015625 -1.375 -0.015625 -1.96875q0 -2.40625 0.21875 -4.15625q0.171875 -1.390625 1.59375 -1.390625q0.6875 0 1.171875 0.4375q0.5 0.421875 0.46875 1.078125q-0.21875 4.46875 -0.21875 4.125zm12.027344 -1.671875q-0.109375 1.796875 -1.625 1.796875q-1.484375 0 -1.484375 -1.53125l-0.046875 -1.171875q-2.640625 0.421875 -3.78125 2.703125l0.015625 5.890625q0 0.671875 -0.46875 1.109375q-0.453125 0.4375 -1.15625 0.4375q-0.71875 0 -1.125 -0.46875q-0.375 -0.421875 -0.375 -1.078125l0 -7.671875q0 -0.359375 0.015625 -1.078125q0.03125 -0.734375 0.03125 -1.09375q0 -0.65625 0.390625 -1.09375q0.40625 -0.4375 1.125 -0.4375q1.296875 0 1.546875 1.328125q2.078125 -1.546875 4.609375 -1.546875q2.34375 0 2.34375 3.125q0 0.59375 -0.015625 0.78125zm7.625 9.0q-2.8125 0 -4.59375 -1.34375q-1.96875 -1.484375 -1.96875 -4.15625q0 -2.96875 1.5625 -5.015625q1.734375 -2.28125 4.671875 -2.28125q2.046875 0 3.390625 0.65625q1.765625 0.875 1.765625 2.703125q0 1.28125 -1.4375 2.28125q-0.65625 0.453125 -2.640625 1.328125l-3.9375 1.75q0.5625 0.609375 1.359375 0.921875q0.796875 0.296875 1.828125 0.296875q1.5625 0 2.65625 -0.640625q0.96875 -0.578125 1.5625 -0.578125q1.21875 0 1.21875 1.1875q0 1.328125 -1.96875 2.171875q-1.640625 0.71875 -3.46875 0.71875zm-0.328125 -9.953125q-1.078125 0 -1.859375 0.734375q-0.765625 0.71875 -1.234375 2.171875q1.3125 -0.578125 2.625 -1.140625q1.59375 -0.71875 2.53125 -1.328125q-0.796875 -0.4375 -2.0625 -0.4375z" fill-rule="nonzero"/>
        </g>
        <g id="focus">
            <g transform="translate(0.1,-1) scale(0.17) translate(-270.9596,-615.5418)">
                <!-- focus-->
                <path fill="none" stroke-width="8.0" stroke-linejoin="round" stroke-linecap="butt" d="m196.19423 612.9816l0 0c0 -35.11139 33.920593 -63.57483 75.76378 -63.57483l0 0c41.84317 0 75.76376 28.46344 75.76376 63.57483l0 0c0 35.11139 -33.920593 63.57483 -75.76376 63.57483l0 0c-41.843185 0 -75.76378 -28.46344 -75.76378 -63.57483z" fill-rule="evenodd"/>
                <path stroke="none" d="m244.79967 689.29486q1.5625 -0.140625 2.25 -0.140625q2.1875 0 2.1875 1.5q0 1.546875 -2.328125 1.46875q-0.734375 -0.015625 -2.234375 0.109375q-0.046875 1.234375 -0.03125 3.15625q0.046875 2.765625 0.046875 3.15625q0 2.140625 -0.265625 3.390625q-0.265625 1.265625 -1.546875 1.265625q-0.65625 0 -1.140625 -0.421875q-0.484375 -0.421875 -0.484375 -1.0625q0 -0.15625 0.015625 -0.296875q0.28125 -1.671875 0.28125 -3.15625l0 -5.859375q-0.203125 0.015625 -0.765625 0.09375q-0.453125 0.0625 -0.6875 0.0625q-0.71875 0 -1.1875 -0.40625q-0.46875 -0.421875 -0.46875 -1.125q0 -1.09375 1.15625 -1.4375q0.515625 -0.15625 2.046875 -0.203125q0.015625 -0.203125 0.15625 -1.3125q0.328125 -2.625 1.421875 -3.890625q1.359375 -1.59375 4.171875 -1.59375q2.140625 0 2.140625 1.53125q0 1.515625 -2.0 1.515625q-1.40625 0 -2.0625 1.0q-0.46875 0.734375 -0.640625 2.3125l-0.03125 0.34375zm11.4648285 12.71875q-2.1718597 0 -3.7343597 -1.484375q-1.703125 -1.625 -1.796875 -4.34375q-0.078125 -2.59375 1.421875 -4.625q1.78125 -2.390625 4.9531097 -2.390625q2.34375 0 3.734375 1.875q1.234375 1.6875 1.234375 4.1875q0 2.71875 -1.453125 4.640625q-1.625 2.140625 -4.359375 2.140625zm0.703125 -9.75q-1.4531097 -0.015625 -2.2812347 1.3125q-0.703125 1.109375 -0.703125 2.609375q0 1.40625 0.796875 2.15625q0.640625 0.59375 1.4843597 0.59375q1.015625 0 1.765625 -0.6875q0.859375 -0.8125 0.90625 -2.203125q0.15625 -3.765625 -1.96875 -3.78125zm12.480469 9.796875q-2.578125 0 -4.328125 -1.46875q-1.84375 -1.546875 -1.84375 -4.078125q0 -2.328125 1.65625 -4.8125q1.875 -2.828125 4.359375 -2.828125q1.21875 0 2.84375 0.65625q1.984375 0.796875 1.984375 1.859375q0 0.578125 -0.40625 1.015625q-0.421875 0.484375 -1.078125 0.484375q-0.515625 0 -1.21875 -0.546875q-0.703125 -0.546875 -2.125 -0.546875q-0.90625 0 -1.953125 1.765625q-1.015625 1.71875 -1.015625 2.953125q0 1.234375 0.890625 1.9375q0.84375 0.671875 2.234375 0.671875q0.78125 0 1.90625 -0.59375q1.140625 -0.609375 1.453125 -0.609375q0.625 0 1.078125 0.46875q0.453125 0.453125 0.453125 1.03125q0 0.921875 -1.984375 1.828125q-1.78125 0.8125 -2.90625 0.8125zm17.203125 -7.515625q0 0.796875 0 2.375q0.015625 1.578125 0.015625 2.359375q0 0.25 0.03125 0.734375q0.046875 0.484375 0.046875 0.734375q0 0.65625 -0.46875 1.078125q-0.46875 0.4375 -1.171875 0.4375q-0.96875 0 -1.40625 -0.875q-1.5 0.546875 -3.109375 0.546875q-1.671875 0 -2.796875 -0.703125q-1.28125 -0.8125 -1.53125 -2.359375q-0.453125 -2.921875 -0.453125 -5.234375q0 -1.53125 0.34375 -3.484375q0.234375 -1.328125 1.59375 -1.328125q0.671875 0 1.15625 0.4375q0.484375 0.421875 0.484375 1.078125q0 0.515625 -0.171875 1.625q-0.171875 1.09375 -0.171875 1.671875q0 1.65625 0.109375 2.890625q0.109375 1.234375 0.328125 2.046875q0.296875 0.125 0.5625 0.203125q0.28125 0.0625 0.546875 0.0625q1.296875 0 2.859375 -0.375q0 -0.90625 -0.015625 -2.046875q-0.015625 -1.375 -0.015625 -1.96875q0 -2.40625 0.21875 -4.15625q0.171875 -1.390625 1.59375 -1.390625q0.6875 0 1.171875 0.4375q0.5 0.421875 0.46875 1.078125q-0.21875 4.46875 -0.21875 4.125zm10.464844 -1.796875q-1.171875 0 -1.40625 -0.96875q-0.46875 -0.09375 -0.953125 -0.09375q-2.828125 0 -2.828125 0.78125q0 0.453125 1.703125 1.234375q2.3125 1.0625 3.140625 1.65625q1.703125 1.234375 1.703125 2.78125q0 2.015625 -1.875 3.0625q-1.515625 0.828125 -3.71875 0.828125q-1.5625 0 -2.84375 -0.484375q-1.765625 -0.65625 -1.765625 -1.9375q0 -1.171875 1.390625 -1.171875q0.546875 0 1.5625 0.34375q1.015625 0.34375 1.578125 0.34375q2.375 0 2.390625 -0.96875q0 -0.59375 -1.65625 -1.3125q-2.421875 -1.078125 -3.09375 -1.546875q-1.65625 -1.15625 -1.65625 -2.8125q0 -2.359375 2.5 -3.1875q1.46875 -0.46875 4.453125 -0.46875q1.171875 0 1.734375 0.296875q0.765625 0.40625 0.765625 1.515625q0 2.109375 -1.125 2.109375z" fill-rule="nonzero"/>
            </g>
            <g transform="translate(1.4,0) scale(0.23) translate(-270.9596,-615.5418)">
                <path fill="none" stroke-width="7.0" stroke-linejoin="round" stroke-linecap="round" d="m252.19423 638.7323l12.007858 -26.007874" fill-rule="evenodd"/>
                <path fill="none" stroke-width="4.0" stroke-linejoin="round" stroke-linecap="butt" d="m258.1942 595.72705l0 0c0 -10.767395 6.9378357 -19.496094 15.496063 -19.496094l0 0c4.109833 0 8.0513 2.0540771 10.957397 5.710266c2.906067 3.65625 4.538666 8.615112 4.538666 13.785828l0 0c0 10.767334 -6.937805 19.496033 -15.496063 19.496033l0 0c-8.558228 0 -15.496063 -8.728699 -15.496063 -19.496033z" fill-rule="evenodd"/>
                <path fill="none" stroke-width="2.0" stroke-linejoin="round" stroke-linecap="butt" d="m282.1942 592.7323c0.5687866 2.269104 0.50131226 4.6606445 0.50131226 7.0" fill-rule="evenodd"/>
            </g>
        </g>
        <g id="applyold">
            <g transform="translate(-0.5,-1) scale(0.17) translate(-440.9596,-615.5418)">
                <!-- apply-->
                <path fill="none" stroke-width="8.0" stroke-linejoin="round" stroke-linecap="butt" d="m368.75067 605.35565l0 0c0 -35.11139 33.920593 -63.57483 75.76376 -63.57483l0 0c41.84317 0 75.76376 28.46344 75.76376 63.57483l0 0c0 35.11139 -33.920593 63.574768 -75.76376 63.574768l0 0c-41.84317 0 -75.76376 -28.463379 -75.76376 -63.574768z" fill-rule="evenodd"/>
                <path stroke="none" d="m426.407 694.10736q-0.546875 0 -1.71875 -1.1875q-1.078125 0.53125 -1.90625 0.78125q-0.8125 0.265625 -1.375 0.265625q-2.828125 0 -4.25 -1.5q-1.40625 -1.515625 -1.40625 -4.53125q0 -2.828125 2.078125 -4.828125q2.09375 -2.015625 5.0 -2.015625q1.109375 0 2.578125 0.625q1.765625 0.765625 1.765625 1.78125q0 0.421875 -0.265625 0.734375q-0.109375 0.46875 -0.1875 1.1875q-0.0625 0.703125 -0.0625 1.640625q0 2.25 0.328125 3.234375q0.03125 0.09375 0.53125 1.21875q0.453125 1.0 0.453125 1.140625q0 0.625 -0.46875 1.03125q-0.46875 0.421875 -1.09375 0.421875zm-2.90625 -8.046875q0 -0.375 0.046875 -0.859375q0.0625 -0.484375 0.15625 -1.09375q-0.234375 -0.109375 -0.421875 -0.15625q-0.171875 -0.0625 -0.296875 -0.0625q-1.59375 0 -2.796875 1.25q-1.1875 1.25 -1.1875 2.890625q0 1.5625 0.5625 2.359375q0.5625 0.796875 1.6875 0.796875q0.71875 0 1.375 -0.234375q0.65625 -0.25 1.21875 -0.71875q-0.34375 -2.796875 -0.34375 -4.171875zm11.5390625 7.953125q-1.0 0 -2.125 -0.234375l0 4.78125q0 0.6875 -0.46875 1.125q-0.453125 0.453125 -1.15625 0.453125q-0.703125 0 -1.15625 -0.453125q-0.453125 -0.4375 -0.453125 -1.125q0 -0.546875 0.015625 -4.359375q0.03125 -2.84375 0 -4.640625q-0.03125 -2.53125 -0.15625 -4.359375q-0.1875 -2.515625 -0.1875 -2.3125q0 -0.96875 0.4375 -1.65625q0.5 -0.78125 1.359375 -0.78125q0.65625 0 1.09375 0.453125q0.453125 0.4375 0.453125 1.046875l-0.015625 0.125q0.796875 -0.453125 1.578125 -0.65625q0.796875 -0.21875 1.59375 -0.21875q2.6875 0 3.9375 2.28125q0.921875 1.71875 0.921875 4.46875q0 2.5625 -1.46875 4.25q-1.5625 1.8125 -4.203125 1.8125zm0.8125 -9.6875q-0.734375 0 -1.5 0.34375q-0.765625 0.34375 -1.53125 1.03125q0.140625 2.421875 0.140625 4.84375q1.03125 0.34375 2.078125 0.34375q1.203125 0 1.859375 -0.859375q0.578125 -0.765625 0.578125 -2.078125q0 -1.59375 -0.140625 -2.203125q-0.34375 -1.421875 -1.484375 -1.421875zm12.019531 9.6875q-1.0 0 -2.125 -0.234375l0 4.78125q0 0.6875 -0.46875 1.125q-0.453125 0.453125 -1.15625 0.453125q-0.703125 0 -1.15625 -0.453125q-0.453125 -0.4375 -0.453125 -1.125q0 -0.546875 0.015625 -4.359375q0.03125 -2.84375 0 -4.640625q-0.03125 -2.53125 -0.15625 -4.359375q-0.1875 -2.515625 -0.1875 -2.3125q0 -0.96875 0.4375 -1.65625q0.5 -0.78125 1.359375 -0.78125q0.65625 0 1.09375 0.453125q0.453125 0.4375 0.453125 1.046875l-0.015625 0.125q0.796875 -0.453125 1.578125 -0.65625q0.796875 -0.21875 1.59375 -0.21875q2.6875 0 3.9375 2.28125q0.921875 1.71875 0.921875 4.46875q0 2.5625 -1.46875 4.25q-1.5625 1.8125 -4.203125 1.8125zm0.8125 -9.6875q-0.734375 0 -1.5 0.34375q-0.765625 0.34375 -1.53125 1.03125q0.140625 2.421875 0.140625 4.84375q1.03125 0.34375 2.078125 0.34375q1.203125 0 1.859375 -0.859375q0.578125 -0.765625 0.578125 -2.078125q0 -1.59375 -0.140625 -2.203125q-0.34375 -1.421875 -1.484375 -1.421875zm10.222656 7.28125q0 2.21875 -1.625 2.21875q-0.703125 0 -1.15625 -0.453125q-0.453125 -0.4375 -0.453125 -1.140625l0 -16.203125q0 -0.6875 0.484375 -1.109375q0.46875 -0.40625 1.15625 -0.40625q0.703125 0 1.140625 0.421875q0.453125 0.40625 0.453125 1.09375l0 15.578125zm14.605469 -8.1875q-1.28125 2.65625 -4.046875 8.359375q-1.5 3.0625 -2.28125 5.078125q-0.25 0.71875 -0.765625 2.15625q-0.421875 1.09375 -1.5 1.09375q-0.671875 0 -1.1875 -0.4375q-0.5 -0.421875 -0.5 -1.078125q0 -1.09375 2.484375 -6.46875q-1.28125 -2.53125 -4.078125 -7.484375q-0.28125 -0.4375 -0.578125 -0.90625q-0.3125 -0.53125 -0.3125 -0.984375q0 -0.625 0.5 -1.109375q0.5 -0.484375 1.15625 -0.484375q0.78125 0 1.203125 0.578125q1.671875 2.21875 3.890625 6.671875q1.25 -2.78125 1.515625 -3.359375q0.828125 -1.734375 1.625 -3.0625q0.515625 -0.84375 1.390625 -0.84375q0.65625 0 1.171875 0.453125q0.515625 0.4375 0.515625 1.078125q0 0.34375 -0.203125 0.75z" fill-rule="nonzero"/>
            </g>
            <g transform="translate(-0,-0.75) scale(0.22) translate(-440.9596,-615.5418)">
                <path stroke-width="4.0" stroke-linejoin="round" stroke-linecap="butt" d="m407.72742 591.7938l0 0c-1.374176 -4.7487793 -1.4729004 -8.866333 -0.22045898 -9.196838l0 0c0.6014404 -0.15875244 1.4403687 0.5949707 2.3322754 2.0952759c0.89190674 1.5002441 1.7637329 3.6242676 2.4236145 5.904724l0 0c1.3742065 4.7487793 1.4729004 8.866333 0.2204895 9.196838l0 0c-0.6014404 0.1586914 -1.4403992 -0.5949707 -2.332306 -2.0952759c-0.89190674 -1.5003052 -1.7637024 -3.6242676 -2.4236145 -5.904724z" fill-rule="evenodd"/>
                <path fill="none" stroke-width="4.0" stroke-linejoin="round" stroke-linecap="butt" d="m411.49918 587.5584c8.452911 -5.7041016 19.38675 -11.23291 29.575714 -9.304016" fill-rule="evenodd"/>
                <path fill="none" stroke-width="5.0" stroke-linejoin="round" stroke-linecap="butt" d="m412.3587 591.196c9.218109 -4.976013 18.782043 -9.958923 29.148193 -12.136414" fill-rule="evenodd"/>
                <path fill="none" stroke-width="7.0" stroke-linejoin="round" stroke-linecap="butt" d="M424.36063 586.4016c6.526825 20.260864 18.687775 38.873352 32.145386 55.81964" fill-rule="evenodd"/>
                <path fill="none" stroke-width="3.0" stroke-linejoin="round" stroke-linecap="butt" d="m441.07422 611.01807c6.4504395 -3.043274 12.53009 -6.8914795 18.001068 -11.325256" fill-rule="evenodd"/>
                <path stroke="none" d="m456.69226 601.26776c-0.75079346 -1.7539673 2.1651917 -5.1845093 5.0361633 -6.1757812c2.8710022 -0.991272 8.744659 0.45715332 12.189758 0.22814941c3.4450989 -0.2290039 8.392242 -2.1742554 8.480804 -1.6021729c0.08856201 0.5720825 -6.005829 3.3949585 -7.9493713 5.03479c-1.943512 1.6398315 -2.3423157 3.6604004 -3.711731 4.804199c-1.3694153 1.1437988 -2.1637878 2.4401245 -4.50473 2.0585938c-2.3409424 -0.38153076 -8.7901 -2.593872 -9.540894 -4.3477783z" fill-rule="evenodd"/>
                <path stroke-width="0.0" stroke-linejoin="round" stroke-linecap="butt" d="m456.69226 601.26776c-0.75079346 -1.7539673 2.1651917 -5.1845093 5.0361633 -6.1757812c2.8710022 -0.991272 8.744659 0.45715332 12.189758 0.22814941c3.4450989 -0.2290039 8.392242 -2.1742554 8.480804 -1.6021729c0.08856201 0.5720825 -6.005829 3.3949585 -7.9493713 5.03479c-1.943512 1.6398315 -2.3423157 3.6604004 -3.711731 4.804199c-1.3694153 1.1437988 -2.1637878 2.4401245 -4.50473 2.0585938c-2.3409424 -0.38153076 -8.7901 -2.593872 -9.540894 -4.3477783z" fill-rule="evenodd"/>
                <path fill="none" stroke-width="3.0" stroke-linejoin="round" stroke-linecap="butt" d="m431.88754 615.0095c-5.4880066 3.446289 -11.42392 6.2109375 -17.145996 9.299744" fill-rule="evenodd"/>
            </g>
        </g>
        <g id="show">
            <g transform="translate(-0.5,0) scale(0.17) translate(-440.9596,-615.5418)">
                <!-- show-->
                <path fill="none" stroke-width="8.0" stroke-linejoin="round" stroke-linecap="butt" d="m368.75067 605.35565l0 0c0 -35.11139 33.920593 -63.57483 75.76376 -63.57483l0 0c41.84317 0 75.76376 28.46344 75.76376 63.57483l0 0c0 35.11139 -33.920593 63.574768 -75.76376 63.574768l0 0c-41.84317 0 -75.76376 -28.463379 -75.76376 -63.574768z" fill-rule="evenodd"/>
            </g>
            <path transform="translate(-0.5,-1) scale(0.17) translate(-104,0)"  d="m89.67286 71.34996q-0.65625 0 -0.90625 -0.421875q-0.171875 -0.3125 -0.3125 -1.265625q-0.875 0.21875 -2.703125 0.8125q-1.890625 0.75 -1.890625 1.859375q0.34375 0.125 0.6875 0.1875q2.6875 0.46875 4.0 1.3125q1.921875 1.234375 1.921875 3.5625q0 1.921875 -1.65625 2.890625q-1.375 0.796875 -3.46875 0.796875q-1.53125 0 -2.9375 -0.515625q-1.796875 -0.65625 -1.796875 -1.828125q0 -0.46875 0.359375 -0.8125q0.375 -0.359375 0.84375 -0.359375q0.359375 0 0.9375 0.5625q0.28125 0.265625 1.265625 0.4375q0.78125 0.140625 1.328125 0.140625q0.984375 0 1.734375 -0.234375q1.09375 -0.328125 1.09375 -1.078125q0 -1.59375 -2.234375 -2.15625l-1.21875 -0.265625q-1.5625 -0.34375 -2.21875 -0.796875q-0.9375 -0.65625 -0.9375 -1.984375q0 -2.4375 2.296875 -3.484375q0.703125 -0.3125 2.25 -0.75q1.546875 -0.453125 2.21875 -0.75q0.484375 -0.21875 1.046875 -0.21875q0.5 0 0.8125 0.328125q0.328125 0.328125 0.328125 0.859375q0 0.34375 0.140625 1.0q0.15625 0.65625 0.15625 1.0q0 0.515625 -0.328125 0.84375q-0.3125 0.328125 -0.8125 0.328125zm13.574219 9.765625q-0.828125 0 -1.09375 -0.90625q-0.265625 -0.953125 -0.484375 -2.71875q-0.21875 -1.703125 -0.21875 -2.796875q0 -0.296875 0.03125 -0.921875q0.03125 -0.625 0.03125 -0.921875q0 -2.203125 -1.09375 -2.203125q-1.5 0 -2.671875 1.34375q-0.59375 0.6875 -1.640625 2.640625q0 4.453125 -0.375 5.28125q-0.328125 0.734375 -1.015625 0.734375q-0.484375 0 -0.84375 -0.328125q-0.359375 -0.34375 -0.359375 -0.8125q0 -0.15625 0.109375 -0.515625q0.09375 -0.28125 0.125 -1.703125l0.03125 -1.734375l0.03125 -8.609375q0.09375 -1.453125 0.09375 -1.96875q0 -0.59375 -0.125 -1.1250038q-0.109375 -0.53125 -0.109375 -1.109375q0 -0.484375 0.34375 -0.8125q0.34375 -0.328125 0.828125 -0.328125q0.96875 0 1.125 1.03125q0.1875 1.140625 0.1875 2.0625038q0 1.21875 -0.078125 2.5625q-0.0625 1.28125 -0.0625 2.5625l0.015625 1.03125q0.96875 -1.28125 2.0625 -1.921875q1.09375 -0.640625 2.328125 -0.640625q1.9375 0 2.671875 1.265625q0.515625 0.890625 0.578125 3.0l0.09375 2.234375l0.234375 2.4375q0.171875 1.375 0.40625 2.421875q0.046875 0.1875 0.046875 0.328125q0 0.484375 -0.359375 0.8125q-0.34375 0.328125 -0.84375 0.328125zm8.457031 -0.046875q-1.96875 0 -3.390625 -1.453125q-1.578125 -1.609375 -1.671875 -4.34375q-0.0625 -2.65625 1.34375 -4.671875q1.640625 -2.375 4.5625 -2.375q2.34375 0 3.5625 2.140625q0.953125 1.734375 0.921875 4.171875q-0.03125 2.609375 -1.359375 4.453125q-1.5 2.078125 -3.96875 2.078125zm0.703125 -10.46875q-1.734375 0 -2.6875 1.640625q-0.765625 1.328125 -0.765625 3.03125q0 1.703125 0.921875 2.640625q0.78125 0.796875 1.828125 0.796875q1.21875 0 2.09375 -0.890625q1.0 -0.984375 1.046875 -2.671875q0.171875 -4.53125 -2.4375 -4.546875zm21.542976 -0.703125q-0.90625 3.8125 -2.390625 8.625q-0.328125 1.078125 -1.09375 2.203125q-0.40625 0.625 -1.109375 0.609375q-1.28125 -0.03125 -1.9843826 -3.1875q-0.234375 -1.0 -0.484375 -2.734375l-0.390625 -2.609375l-0.953125 2.234375l-1.78125 4.84375q-0.15625 0.4375 -0.453125 0.671875q-0.34375 0.6875 -1.125 0.703125q-0.890625 0.046875 -1.71875 -3.484375q-0.421875 -1.828125 -0.84375 -4.921875l-0.28125 -1.765625q-0.15625 -1.046875 -0.15625 -1.765625q0 -0.5 0.34375 -0.8125q0.34375 -0.328125 0.84375 -0.328125q0.890625 0 1.09375 0.96875q0.15625 0.703125 0.25 1.71875l0.171875 1.71875l0.703125 5.265625q1.296875 -3.609375 2.6875 -8.328125q0.390625 -1.296875 1.34375 -1.296875q0.9375 0 1.265625 1.453125q0.29688263 1.375 0.7500076 4.21875q0.46875 2.953125 0.84375 4.609375l0.84375 -3.1875l1.515625 -6.390625q0.171875 -0.71875 1.015625 -0.71875q0.484375 0 0.84375 0.34375q0.375 0.328125 0.375 0.796875q0 0.0625 -0.125 0.546875z" fill-rule="nonzero"/>
            <g transform="translate(-0,-0.75) scale(0.07) translate(-120,-120)">
                    <path fill="none" stroke-width="16.0" stroke-linejoin="round" stroke-linecap="butt" d="m85.661415 127.926895l50.92782 -118.08924l50.927826 118.08924z" fill-rule="evenodd"/>
                    <path  stroke-width="6.0" stroke-linejoin="round" stroke-linecap="butt" d="m74.41732 66.36614l-63.02362 28.031494" fill-rule="evenodd"/>
                    <path stroke="none" d="m57.417362 59.029716l13.859089 1.1062622E-4l4.2826004 -15.663685l4.282608 15.663685l13.859093 -1.1062622E-4l-11.212296 9.68058l4.2827835 15.663612l-11.212189 -9.680756l-11.212181 9.680756l4.2827835 -15.663612z" fill-rule="evenodd"/>
                    <path  fill="none" stroke-width="16.0" d="m 160 70 a 50 50 0 1 1 -25 55" />
            </g>
        </g>

        <polygon id="barepent" points="0.5000000,0.0000000 0.5000000,-1.0000000 1.3660254,-1.5000000 2.2320508,-1.0000000 2.2320508,-0.0000000 1.3660254,0.5000000 "/>
        <g id="pent" transform="scale(18.8) translate(-1.3660,0.5)">
            <use xlink:href="#barepent" stroke="none" fill="url(#grad2)"/>
            <use xlink:href="#barepent" stroke="black" fill-opacity="0.2" stroke-width="0.03"/>
        </g>
        <g id="pent2" transform="scale(18.8) translate(-1.3660,0.5)">
            <use xlink:href="#barepent" stroke="none" fill="url(#grad3)"/>
            <use xlink:href="#barepent" stroke="black" fill-opacity="0.2" stroke-width="0.03"/>
        </g>
    </defs>
    <g transform="translate(50,50)">
        <text transform="translate(0,3)" style="text-anchor:middle;" font-family="sans-serif" font-weight="bold" font-size="10">GOAL</text>
        <g fill="#980000" stroke="#980000" transform="translate(-16.3,-28.2)">
            <use xlink:href="#pent2"/>
            <use xlink:href="#bridge"/>
        </g>
        <g fill="#FFDF00" stroke="#FFDF00" transform="translate(-16.3,28.2)">
            <use xlink:href="#pent2"/>
            <use xlink:href="#speed"/>
        </g>
        <g fill="#52d931" stroke="#52d931" transform="translate(16.3,28.2)">
            <use xlink:href="#pent2"/>
            <use xlink:href="#explore"/>
        </g>
        <g fill="#c70ad9" stroke="#c70ad9" transform="translate(-32.55,0)">
            <use xlink:href="#pent2"/>
            <use xlink:href="#endure"/>
        </g>
        <g fill="#1ca6ff" stroke="#1ca6ff" transform="translate(32.55,0)">
            <use xlink:href="#pent2"/>
            <use xlink:href="#focus"/>
        </g>
        <g fill="#ff0000" stroke="#ff0000" transform="translate(16.3,-28.2)">
            <use xlink:href="#pent2"/>
            <use xlink:href="#show"/>
        </g>
    </g>
    <g transform="translate(50,150)">
        <g fill="#ff0000" stroke="#ff0000" transform="scale(3.5) translate(0,0)">
            <use xlink:href="#show"/>
        </g>
    </g>
    <g transform="translate(50,250)">
        <g fill="#980000" stroke="#980000" transform="scale(3.5) translate(0,0)">
            <use xlink:href="#bridge"/>
        </g>
    </g>
    <g transform="translate(50,350)">
        <g fill="#c70ad9" stroke="#c70ad9" transform="scale(3.5) translate(0,0)">
            <use xlink:href="#endure"/>
        </g>
    </g>
    <g transform="translate(50,450)">
        <g fill="#52d931" stroke="#52d931" transform="scale(3.5) translate(0,0)">
            <use xlink:href="#explore"/>
        </g>
    </g>
    <g transform="translate(50,550)">
        <g fill="#1ca6ff" stroke="#1ca6ff" transform="scale(3.5) translate(0,0)">
            <use xlink:href="#focus"/>
        </g>
    </g>
    <g transform="translate(50,650)">
        <g fill="#FFDF00" stroke="#FFDF00" transform="scale(3.5) translate(0,-1.1)">
            <use xlink:href="#speed"/>
        </g>
    </g>
    <!-- make the grid -->
    <g opacity="0">
        <rect fill="url(#grid)" y="600" width="100 " height="100 " opacity="1 "/>
        <rect fill="url(#grid2)" width="100 " height="100 "/>
    </g>
</svg>
